<?xml version="1.0" encoding="UTF-8"?>
<svg version="1.1" xmlns="http://www.w3.org/2000/svg" width="500" height="295">
<path d="M0 0 C165 0 330 0 500 0 C500 97.35 500 194.7 500 295 C335 295 170 295 0 295 C0 197.65 0 100.3 0 0 Z " fill="#F6F6F6" transform="translate(0,0)"/>
<path d="M0 0 C1.2004747 -0.00191345 2.4009494 -0.0038269 3.63780212 -0.00579834 C6.15298678 -0.00715036 8.66817864 -0.00352318 11.18334961 0.00488281 C15.04751976 0.01568138 18.91123395 0.00491061 22.77539062 -0.0078125 C25.22526145 -0.00649239 27.67513198 -0.00393309 30.125 0 C31.28322769 -0.00404846 32.44145538 -0.00809692 33.63478088 -0.01226807 C34.70026657 -0.00596375 35.76575226 0.00034058 36.86352539 0.00683594 C38.27269981 0.00922272 38.27269981 0.00922272 39.71034241 0.01165771 C41.96484375 0.265625 41.96484375 0.265625 43.96484375 2.265625 C44.20776367 4.40454102 44.20776367 4.40454102 44.1953125 7.01953125 C44.19337891 7.95603516 44.19144531 8.89253906 44.18945312 9.85742188 C44.17720703 10.83775391 44.16496094 11.81808594 44.15234375 12.828125 C44.15137695 14.30442383 44.15137695 14.30442383 44.15039062 15.81054688 C44.10501907 23.12544968 44.10501907 23.12544968 42.96484375 24.265625 C41.12520264 24.37332583 39.2814762 24.41189168 37.4387207 24.42333984 C36.25691727 24.43360199 35.07511383 24.44386414 33.85749817 24.45443726 C32.56905502 24.46173859 31.28061188 24.46903992 29.953125 24.4765625 C27.94213848 24.49744384 25.93115197 24.51834259 23.92017651 24.54026222 C18.94595858 24.59348424 13.97173073 24.63755441 8.99731445 24.66699219 C5.54003397 24.68800456 2.08314503 24.72336758 -1.3739109 24.76774979 C-3.32688173 24.78871371 -5.28000099 24.7939498 -7.233078 24.79891968 C-9.02942436 24.82376938 -9.02942436 24.82376938 -10.86206055 24.84912109 C-12.43639107 24.86125137 -12.43639107 24.86125137 -14.04252625 24.87362671 C-18.26451494 25.4266561 -21.71409717 26.88494567 -24.6796875 29.984375 C-25.06511719 30.5721875 -25.45054687 31.16 -25.84765625 31.765625 C-26.24597656 32.3534375 -26.64429688 32.94125 -27.0546875 33.546875 C-29.84582419 38.43970426 -29.57165585 43.81121241 -29.03515625 49.265625 C-27.35743574 54.77292493 -24.70192278 57.89518251 -20.03515625 61.265625 C-20.03515625 61.925625 -20.03515625 62.585625 -20.03515625 63.265625 C-15.74515625 63.925625 -11.45515625 64.585625 -7.03515625 65.265625 C-7.04675781 63.70070312 -7.05835938 62.13578125 -7.0703125 60.5234375 C-7.07968988 58.47916786 -7.08879014 56.43489693 -7.09765625 54.390625 C-7.10603516 53.35808594 -7.11441406 52.32554687 -7.12304688 51.26171875 C-7.12626953 50.27558594 -7.12949219 49.28945312 -7.1328125 48.2734375 C-7.13804932 47.36223145 -7.14328613 46.45102539 -7.14868164 45.51220703 C-7.03515625 43.265625 -7.03515625 43.265625 -6.03515625 41.265625 C0.42018906 41.16322462 6.87532085 41.09374531 13.33129883 41.04589844 C15.52213365 41.02592758 17.71291618 40.99874122 19.90356445 40.96386719 C33.70696706 40.74981214 45.45450697 40.77405086 57.96484375 47.265625 C57.96484375 47.925625 57.96484375 48.585625 57.96484375 49.265625 C58.85171875 49.4925 59.73859375 49.719375 60.65234375 49.953125 C67.39561068 52.62498548 71.6222604 59.01882988 74.96484375 65.265625 C77.77533663 71.78557332 78.43221072 77.71494647 78.33984375 84.765625 C78.35144531 85.65121094 78.36304688 86.53679687 78.375 87.44921875 C78.3273021 98.27664274 74.72839777 107.60248336 67.40234375 115.640625 C66.61730469 116.51460938 65.83226562 117.38859375 65.0234375 118.2890625 C62.96484375 120.265625 62.96484375 120.265625 60.96484375 120.265625 C60.96484375 120.925625 60.96484375 121.585625 60.96484375 122.265625 C59.75927771 122.89594633 58.55021186 123.5195747 57.33984375 124.140625 C56.66695313 124.48867187 55.9940625 124.83671875 55.30078125 125.1953125 C49.94452011 127.64951911 45.50158708 128.50973032 39.59765625 128.4609375 C38.91806854 128.4581076 38.23848083 128.45527771 37.53829956 128.45236206 C35.38862767 128.44125464 33.23938761 128.41616891 31.08984375 128.390625 C29.62370398 128.38058295 28.15755761 128.37145925 26.69140625 128.36328125 C23.11574744 128.34134659 19.54033781 128.30688314 15.96484375 128.265625 C15.97531738 128.95188965 15.98579102 129.6381543 15.99658203 130.34521484 C16.03806249 133.44364789 16.06414444 136.54202261 16.08984375 139.640625 C16.10660156 140.72085938 16.12335938 141.80109375 16.140625 142.9140625 C16.14707031 143.9453125 16.15351563 144.9765625 16.16015625 146.0390625 C16.17062988 146.99216309 16.18110352 147.94526367 16.19189453 148.92724609 C15.96484375 151.265625 15.96484375 151.265625 13.96484375 153.265625 C12.02539063 153.52441406 12.02539063 153.52441406 9.68359375 153.53125 C8.84183594 153.53382813 8.00007813 153.53640625 7.1328125 153.5390625 C6.25238281 153.53132812 5.37195313 153.52359375 4.46484375 153.515625 C3.58441406 153.52335938 2.70398438 153.53109375 1.796875 153.5390625 C0.95511719 153.53648437 0.11335938 153.53390625 -0.75390625 153.53125 C-1.52669922 153.52899414 -2.29949219 153.52673828 -3.09570312 153.52441406 C-5.03515625 153.265625 -5.03515625 153.265625 -7.03515625 151.265625 C-7.35400391 149.01904297 -7.35400391 149.01904297 -7.44921875 146.2578125 C-7.50722656 144.77861328 -7.50722656 144.77861328 -7.56640625 143.26953125 C-7.59734375 142.23699219 -7.62828125 141.20445312 -7.66015625 140.140625 C-7.71816406 138.58021484 -7.71816406 138.58021484 -7.77734375 136.98828125 C-7.87180391 134.41424189 -7.95736839 131.84021345 -8.03515625 129.265625 C-11.66000624 129.17881024 -15.28459068 129.12529779 -18.91015625 129.078125 C-19.94269531 129.05298828 -20.97523438 129.02785156 -22.0390625 129.00195312 C-23.02519531 128.99228516 -24.01132813 128.98261719 -25.02734375 128.97265625 C-25.9385498 128.9569458 -26.84975586 128.94123535 -27.78857422 128.92504883 C-28.90063232 129.09363403 -28.90063232 129.09363403 -30.03515625 129.265625 C-32.42627834 132.85230813 -32.26896652 134.42959069 -32.23046875 138.68359375 C-32.22402344 139.93720703 -32.21757812 141.19082031 -32.2109375 142.48242188 C-32.19417969 143.79275391 -32.17742187 145.10308594 -32.16015625 146.453125 C-32.15012264 147.78840487 -32.14099745 149.12369189 -32.1328125 150.45898438 C-32.10920917 153.72804515 -32.07628219 156.99674528 -32.03515625 160.265625 C-31.48045654 160.3080835 -30.92575684 160.35054199 -30.35424805 160.39428711 C-24.87724817 160.89556791 -20.01170556 161.95685319 -14.84765625 163.828125 C-13.7649646 164.21315186 -13.7649646 164.21315186 -12.66040039 164.60595703 C-5.30535758 167.33960412 1.32630579 171.12048402 7.96484375 175.265625 C7.96484375 175.925625 7.96484375 176.585625 7.96484375 177.265625 C8.72796875 177.554375 9.49109375 177.843125 10.27734375 178.140625 C12.96484375 179.265625 12.96484375 179.265625 15.96484375 181.265625 C16.06796875 180.55019531 16.17109375 179.83476562 16.27734375 179.09765625 C18.87806642 168.38445207 28.011944 160.36763935 36.90234375 154.578125 C38.24722288 153.79119964 39.60177072 153.02059739 40.96484375 152.265625 C41.67769531 151.85699219 42.39054687 151.44835937 43.125 151.02734375 C54.61146287 144.83347479 67.88938444 140.82238909 80.96484375 141.265625 C81.96484375 142.265625 81.96484375 142.265625 82.07836914 145.77563477 C82.07821001 147.33610922 82.07251517 148.89658893 82.0625 150.45703125 C82.06037758 151.68678932 82.06037758 151.68678932 82.05821228 152.94139099 C82.05259664 155.57033882 82.04004154 158.19920273 82.02734375 160.828125 C82.02233076 162.60611857 82.01776751 164.38411346 82.01367188 166.16210938 C82.00262214 170.52998045 81.98534706 174.89778848 81.96484375 179.265625 C79.4487181 180.52368783 77.1240546 180.51011217 74.35351562 180.70800781 C59.59099421 181.86694631 45.08385075 186.58699545 32.96484375 195.265625 C32.17851562 195.82121094 31.3921875 196.37679687 30.58203125 196.94921875 C26.20947967 200.18894756 22.65300069 203.47266823 19.44921875 207.8828125 C17.24149276 209.93948356 15.99307222 210.34508289 12.96484375 210.265625 C10.83408358 208.3119194 9.14529 206.48764393 7.33984375 204.265625 C-6.5285838 188.33581862 -26.24990003 182.28746231 -46.84765625 180.640625 C-48.28044922 180.55941406 -48.28044922 180.55941406 -49.7421875 180.4765625 C-52.03515625 180.265625 -52.03515625 180.265625 -54.03515625 179.265625 C-54.12819327 171.97202878 -54.19909068 164.67856233 -54.24240494 157.38449097 C-54.26320296 153.99683542 -54.29137512 150.60958844 -54.33691406 147.22216797 C-54.38560318 143.31987854 -54.40816554 139.41816348 -54.42578125 135.515625 C-54.45674896 133.70735229 -54.45674896 133.70735229 -54.48834229 131.86254883 C-54.49046861 123.83523859 -53.41703765 118.74596916 -48.5078125 112.2421875 C-47.80978516 111.57316406 -47.80978516 111.57316406 -47.09765625 110.890625 C-46.40349609 110.19839844 -46.40349609 110.19839844 -45.6953125 109.4921875 C-41.34885194 106.28092017 -37.0502721 105.98204761 -31.765625 105.8515625 C-31.08462234 105.83219635 -30.40361969 105.8128302 -29.70198059 105.7928772 C-27.54233032 105.73344368 -25.38262568 105.686843 -23.22265625 105.640625 C-21.75193081 105.60241172 -20.28122696 105.56335806 -18.81054688 105.5234375 C-15.21886693 105.42620082 -11.62739658 105.3463495 -8.03515625 105.265625 C-7.70515625 99.655625 -7.37515625 94.045625 -7.03515625 88.265625 C-9.67515625 88.265625 -12.31515625 88.265625 -15.03515625 88.265625 C-22.27062423 87.07177278 -28.64734149 84.82806015 -35.03515625 81.265625 C-35.03515625 80.605625 -35.03515625 79.945625 -35.03515625 79.265625 C-35.62425781 79.0078125 -36.21335938 78.75 -36.8203125 78.484375 C-44.22016614 74.41249786 -49.24099157 65.32699216 -51.57714844 57.43457031 C-54.1139969 45.42105126 -53.61444882 30.80290888 -47.03515625 20.265625 C-46.57753906 19.51410156 -46.11992187 18.76257813 -45.6484375 17.98828125 C-39.42234315 8.82824655 -29.83269941 3.24092235 -19.05688477 1.17285156 C-12.69155575 0.07429984 -6.44616083 -0.02289194 0 0 Z " fill="#1F73BA" transform="translate(233.03515625,76.734375)"/>
<path d="M0 0 C1.2004747 -0.00191345 2.4009494 -0.0038269 3.63780212 -0.00579834 C6.15298678 -0.00715036 8.66817864 -0.00352318 11.18334961 0.00488281 C15.04751976 0.01568138 18.91123395 0.00491061 22.77539062 -0.0078125 C25.22526145 -0.00649239 27.67513198 -0.00393309 30.125 0 C31.28322769 -0.00404846 32.44145538 -0.00809692 33.63478088 -0.01226807 C34.70026657 -0.00596375 35.76575226 0.00034058 36.86352539 0.00683594 C38.27269981 0.00922272 38.27269981 0.00922272 39.71034241 0.01165771 C41.96484375 0.265625 41.96484375 0.265625 43.96484375 2.265625 C44.20776367 4.40454102 44.20776367 4.40454102 44.1953125 7.01953125 C44.19337891 7.95603516 44.19144531 8.89253906 44.18945312 9.85742188 C44.17720703 10.83775391 44.16496094 11.81808594 44.15234375 12.828125 C44.15137695 14.30442383 44.15137695 14.30442383 44.15039062 15.81054688 C44.10501907 23.12544968 44.10501907 23.12544968 42.96484375 24.265625 C41.12520264 24.37332583 39.2814762 24.41189168 37.4387207 24.42333984 C36.25691727 24.43360199 35.07511383 24.44386414 33.85749817 24.45443726 C32.56905502 24.46173859 31.28061188 24.46903992 29.953125 24.4765625 C27.94213848 24.49744384 25.93115197 24.51834259 23.92017651 24.54026222 C18.94595858 24.59348424 13.97173073 24.63755441 8.99731445 24.66699219 C5.54003397 24.68800456 2.08314503 24.72336758 -1.3739109 24.76774979 C-3.32688173 24.78871371 -5.28000099 24.7939498 -7.233078 24.79891968 C-9.02942436 24.82376938 -9.02942436 24.82376938 -10.86206055 24.84912109 C-12.43639107 24.86125137 -12.43639107 24.86125137 -14.04252625 24.87362671 C-18.26451494 25.4266561 -21.71409717 26.88494567 -24.6796875 29.984375 C-25.06511719 30.5721875 -25.45054687 31.16 -25.84765625 31.765625 C-26.24597656 32.3534375 -26.64429688 32.94125 -27.0546875 33.546875 C-29.84582419 38.43970426 -29.57165585 43.81121241 -29.03515625 49.265625 C-27.35743574 54.77292493 -24.70192278 57.89518251 -20.03515625 61.265625 C-20.03515625 61.925625 -20.03515625 62.585625 -20.03515625 63.265625 C-15.74515625 63.925625 -11.45515625 64.585625 -7.03515625 65.265625 C-7.03515625 72.855625 -7.03515625 80.445625 -7.03515625 88.265625 C-17.53395406 88.265625 -25.88762091 86.36713509 -35.03515625 81.265625 C-35.03515625 80.605625 -35.03515625 79.945625 -35.03515625 79.265625 C-35.62425781 79.0078125 -36.21335938 78.75 -36.8203125 78.484375 C-44.22016614 74.41249786 -49.24099157 65.32699216 -51.57714844 57.43457031 C-54.1139969 45.42105126 -53.61444882 30.80290888 -47.03515625 20.265625 C-46.57753906 19.51410156 -46.11992187 18.76257813 -45.6484375 17.98828125 C-39.42234315 8.82824655 -29.83269941 3.24092235 -19.05688477 1.17285156 C-12.69155575 0.07429984 -6.44616083 -0.02289194 0 0 Z " fill="#2399D7" transform="translate(233.03515625,76.734375)"/>
<path d="M0 0 C1 1 1 1 1.11352539 4.51000977 C1.11336626 6.07048422 1.10767142 7.63096393 1.09765625 9.19140625 C1.0962413 10.01124496 1.09482635 10.83108368 1.09336853 11.67576599 C1.08775289 14.30471382 1.07519779 16.93357773 1.0625 19.5625 C1.05748701 21.34049357 1.05292376 23.11848846 1.04882812 24.89648438 C1.03777839 29.26435545 1.02050331 33.63216348 1 38 C-1.51612565 39.25806283 -3.84078915 39.24448717 -6.61132812 39.44238281 C-21.37384954 40.60132131 -35.880993 45.32137045 -48 54 C-48.78632813 54.55558594 -49.57265625 55.11117187 -50.3828125 55.68359375 C-54.75536408 58.92332256 -58.31184306 62.20704323 -61.515625 66.6171875 C-63.74588744 68.69485303 -64.93308014 69.10590802 -68 69 C-70.40675097 67.17665616 -72.25763753 64.93415559 -74.1875 62.625 C-77.63444658 58.25319317 -77.63444658 58.25319317 -82 55 C-82 54.01 -82 53.02 -82 52 C-82.66 51.67 -83.32 51.34 -84 51 C-82.875 49.4375 -82.875 49.4375 -81 48 C-77.8125 48.3125 -77.8125 48.3125 -75 49 C-74.80664062 48.30132812 -74.61328125 47.60265625 -74.4140625 46.8828125 C-74.15367187 45.97273438 -73.89328125 45.06265625 -73.625 44.125 C-73.24214844 42.76761719 -73.24214844 42.76761719 -72.8515625 41.3828125 C-72 39 -72 39 -70 37 C-68.35 37.99 -66.7 38.98 -65 40 C-64.896875 39.28457031 -64.79375 38.56914062 -64.6875 37.83203125 C-62.08677733 27.11882707 -52.95289975 19.10201435 -44.0625 13.3125 C-42.71762087 12.52557464 -41.36307303 11.75497239 -40 11 C-39.28714844 10.59136719 -38.57429688 10.18273437 -37.83984375 9.76171875 C-26.35338088 3.56784979 -13.07545931 -0.44323591 0 0 Z " fill="#1D72BA" transform="translate(314,218)"/>
<path d="M0 0 C3.14575207 -0.05896868 6.2913586 -0.09391603 9.4375 -0.125 C10.75524414 -0.15013672 10.75524414 -0.15013672 12.09960938 -0.17578125 C20.63143341 -0.23874674 28.18431713 0.45235115 35 6 C39.82705954 11.21844275 40.30043715 15.48806105 40.21875 22.390625 C39.87760284 26.46002327 38.8312651 29.33746979 37 33 C34.8125 34.5 34.8125 34.5 33 35 C33 35.66 33 36.32 33 37 C26.39512897 42.00369018 18.02120311 41.1575393 10.125 41.125 C9.16335938 41.12886719 8.20171875 41.13273437 7.2109375 41.13671875 C6.29828125 41.13542969 5.385625 41.13414062 4.4453125 41.1328125 C3.61531738 41.13168457 2.78532227 41.13055664 1.93017578 41.12939453 C0 41 0 41 -1 40 C-1.10105822 37.21174652 -1.1396984 34.44879127 -1.1328125 31.66015625 C-1.13376923 30.82286484 -1.13472595 29.98557343 -1.13571167 29.12290955 C-1.13639355 27.34829636 -1.13453872 25.57368069 -1.13037109 23.79907227 C-1.1250296 21.0775798 -1.13031235 18.35625288 -1.13671875 15.63476562 C-1.13605784 13.91406213 -1.13477641 12.19335875 -1.1328125 10.47265625 C-1.13483673 9.65491226 -1.13686096 8.83716827 -1.13894653 7.99464417 C-1.11495507 2.22991015 -1.11495507 2.22991015 0 0 Z " fill="#F6F6F6" transform="translate(249,142)"/>
<path d="M0 0 C0.87527344 -0.02835937 1.75054687 -0.05671875 2.65234375 -0.0859375 C5.0625 0.375 5.0625 0.375 6.8671875 1.9140625 C8.5152673 5.30716796 8.38569586 8.44381486 8.25 12.125 C8.22969727 13.17107422 8.22969727 13.17107422 8.20898438 14.23828125 C8.1737945 15.95085541 8.11999155 17.66302941 8.0625 19.375 C9.74279297 19.32279297 9.74279297 19.32279297 11.45703125 19.26953125 C12.92967251 19.24139161 14.40232998 19.21409163 15.875 19.1875 C16.61298828 19.16236328 17.35097656 19.13722656 18.11132812 19.11132812 C23.51784811 19.03793645 23.51784811 19.03793645 26.05078125 20.60546875 C27.32253514 22.8298105 27.4630641 24.31859046 27.4375 26.875 C27.44910156 28.03515625 27.44910156 28.03515625 27.4609375 29.21875 C27.0625 31.375 27.0625 31.375 26.05078125 33.14453125 C22.86628058 35.11529296 19.49526849 34.68581046 15.875 34.5625 C15.12541016 34.54896484 14.37582031 34.53542969 13.60351562 34.52148438 C11.75620233 34.48618539 9.90925934 34.43237917 8.0625 34.375 C8.11470703 36.07269531 8.11470703 36.07269531 8.16796875 37.8046875 C8.19610336 39.28644353 8.22340387 40.76821556 8.25 42.25 C8.27513672 42.99636719 8.30027344 43.74273437 8.32617188 44.51171875 C8.35546875 46.6796875 8.35546875 46.6796875 8.0625 50.375 C4.74879 52.58414 3.7178979 52.59981553 -0.125 52.5 C-1.02605469 52.48195312 -1.92710937 52.46390625 -2.85546875 52.4453125 C-3.54253906 52.42210937 -4.22960937 52.39890625 -4.9375 52.375 C-7.38739101 48.63264681 -7.16836143 44.93274581 -7.0625 40.625 C-7.05347656 39.92761719 -7.04445313 39.23023438 -7.03515625 38.51171875 C-7.01169888 36.79933042 -6.97583104 35.08711996 -6.9375 33.375 C-8.61779297 33.42720703 -8.61779297 33.42720703 -10.33203125 33.48046875 C-11.80467251 33.50860839 -13.27732998 33.53590837 -14.75 33.5625 C-15.48798828 33.58763672 -16.22597656 33.61277344 -16.98632812 33.63867188 C-22.41917272 33.7124209 -22.41917272 33.7124209 -24.9296875 32.078125 C-26.62934474 29.20583603 -26.22212453 26.61971966 -25.9375 23.375 C-25.2775 22.055 -24.6175 20.735 -23.9375 19.375 C-18.3275 19.375 -12.7175 19.375 -6.9375 19.375 C-7.01654591 13.87016329 -7.01654591 13.87016329 -7.11767578 8.36572266 C-7.13223738 6.36796522 -7.03706726 4.37032783 -6.9375 2.375 C-4.43686853 -0.12563147 -3.45938302 0.05079858 0 0 Z " fill="#FBCA0A" transform="translate(316.9375,77.625)"/>
<path d="M0 0 C1 1 1 1 1.11352539 2.76586914 C1.10567017 3.88916626 1.10567017 3.88916626 1.09765625 5.03515625 C1.09282227 6.24848633 1.09282227 6.24848633 1.08789062 7.48632812 C1.07532227 8.7615332 1.07532227 8.7615332 1.0625 10.0625 C1.05798828 10.91650391 1.05347656 11.77050781 1.04882812 12.65039062 C1.03700373 14.76695663 1.01906769 16.88348685 1 19 C0.38294189 19.02392822 -0.23411621 19.04785645 -0.86987305 19.07250977 C-21.1787993 19.98651467 -38.81903162 23.83767332 -56 35 C-57.74186601 35.99356438 -59.49131363 36.97402213 -61.25 37.9375 C-61.97703125 38.33839844 -62.7040625 38.73929687 -63.453125 39.15234375 C-63.96359375 39.43207031 -64.4740625 39.71179688 -65 40 C-63.53133033 29.81110415 -55.89885857 21.99271041 -48 16 C-45.41491927 14.15712018 -42.77631205 12.5377305 -40 11 C-39.28714844 10.59136719 -38.57429688 10.18273437 -37.83984375 9.76171875 C-26.35338088 3.56784979 -13.07545931 -0.44323591 0 0 Z " fill="#2499D8" transform="translate(314,218)"/>
<path d="M0 0 C1.09438385 -0.00630432 2.1887677 -0.01260864 3.3163147 -0.019104 C4.49245331 -0.01505554 5.66859192 -0.01100708 6.88037109 -0.00683594 C8.09075043 -0.00874939 9.30112976 -0.01066284 10.54818726 -0.01263428 C13.10520638 -0.01399487 15.66223244 -0.01030725 18.21923828 -0.00195312 C22.14550163 0.00876638 26.07130933 -0.00186256 29.99755859 -0.01464844 C32.47933044 -0.01332719 34.96110201 -0.0107655 37.44287109 -0.00683594 C38.62305817 -0.0108844 39.80324524 -0.01493286 41.01919556 -0.019104 C42.65131485 -0.00964752 42.65131485 -0.00964752 44.31640625 0 C45.2769693 0.00159119 46.23753235 0.00318237 47.22720337 0.00482178 C49.52880859 0.25878906 49.52880859 0.25878906 51.52880859 2.25878906 C51.77172852 4.39770508 51.77172852 4.39770508 51.75927734 7.01269531 C51.75734375 7.94919922 51.75541016 8.88570312 51.75341797 9.85058594 C51.73504883 11.32108398 51.73504883 11.32108398 51.71630859 12.82128906 C51.71566406 13.80548828 51.71501953 14.7896875 51.71435547 15.80371094 C51.66898391 23.11861374 51.66898391 23.11861374 50.52880859 24.25878906 C48.74888936 24.35249531 46.9652412 24.37623177 45.18286133 24.37231445 C44.041754 24.37223892 42.90064667 24.37216339 41.72496033 24.37208557 C40.48331619 24.36692429 39.24167206 24.361763 37.96240234 24.35644531 C36.06676292 24.35432289 36.06676292 24.35432289 34.13282776 24.35215759 C30.7675597 24.34749488 27.4023587 24.33850386 24.03710938 24.32745361 C20.6053119 24.31723752 17.17350751 24.31265955 13.74169922 24.30761719 C7.00405035 24.29656286 0.26643335 24.27980616 -6.47119141 24.25878906 C-4.82119141 22.93878906 -3.17119141 21.61878906 -1.47119141 20.25878906 C-1.47119141 20.91878906 -1.47119141 21.57878906 -1.47119141 22.25878906 C15.68880859 22.25878906 32.84880859 22.25878906 50.52880859 22.25878906 C50.19880859 15.98878906 49.86880859 9.71878906 49.52880859 3.25878906 C20.32380859 2.76378906 20.32380859 2.76378906 -9.47119141 2.25878906 C-5.56360141 0.30499407 -4.17379508 0.00690252 0 0 Z " fill="#5BA5CE" transform="translate(225.47119140625,76.7412109375)"/>
<path d="M0 0 C1.47436523 0.01933594 1.47436523 0.01933594 2.97851562 0.0390625 C4.00267578 0.07257813 5.02683594 0.10609375 6.08203125 0.140625 C7.63567383 0.16769531 7.63567383 0.16769531 9.22070312 0.1953125 C11.77957409 0.24248063 14.33658967 0.30828443 16.89453125 0.390625 C16.89453125 0.720625 16.89453125 1.050625 16.89453125 1.390625 C10.29453125 1.390625 3.69453125 1.390625 -3.10546875 1.390625 C-3.43546875 3.700625 -3.76546875 6.010625 -4.10546875 8.390625 C-3.44546875 8.060625 -2.78546875 7.730625 -2.10546875 7.390625 C-2.23115234 8.52951172 -2.23115234 8.52951172 -2.359375 9.69140625 C-2.46121094 10.68527344 -2.56304687 11.67914063 -2.66796875 12.703125 C-2.77238281 13.68925781 -2.87679687 14.67539063 -2.984375 15.69140625 C-3.27149402 18.48992847 -3.27149402 18.48992847 -2.10546875 21.390625 C-1.60596614 24.25332061 -1.15150268 27.12106318 -0.703125 29.9921875 C-0.50589844 30.78367188 -0.30867187 31.57515625 -0.10546875 32.390625 C0.55453125 32.720625 1.21453125 33.050625 1.89453125 33.390625 C-1.07546875 33.060625 -4.04546875 32.730625 -7.10546875 32.390625 C-7.36028814 27.80833869 -7.57989722 23.22502726 -7.79296875 18.640625 C-7.86580078 17.33867187 -7.93863281 16.03671875 -8.01367188 14.6953125 C-8.06845703 13.44492188 -8.12324219 12.19453125 -8.1796875 10.90625 C-8.23729248 9.75415039 -8.29489746 8.60205078 -8.35424805 7.41503906 C-7.87934902 1.64168366 -5.64390851 -0.13049499 0 0 Z " fill="#ECF0F3" transform="translate(208.10546875,204.609375)"/>
<path d="M0 0 C2.60478883 -0.0809313 5.20706653 -0.14045434 7.8125 -0.1875 C8.55048828 -0.21263672 9.28847656 -0.23777344 10.04882812 -0.26367188 C15.45534811 -0.33706355 15.45534811 -0.33706355 17.98828125 1.23046875 C19.26003514 3.4548105 19.4005641 4.94359046 19.375 7.5 C19.38273437 8.2734375 19.39046875 9.046875 19.3984375 9.84375 C19 12 19 12 17.98828125 13.76953125 C14.80316198 15.74067579 11.43141741 15.30982655 7.8125 15.1875 C5.234375 15.125625 2.65625 15.06375 0 15 C0 20.28 0 25.56 0 31 C-0.33 31 -0.66 31 -1 31 C-1 25.39 -1 19.78 -1 14 C0.98 13.01 2.96 12.02 5 11 C5.99 10.34 6.98 9.68 8 9 C11.1875 9.375 11.1875 9.375 14 10 C14.33 9.01 14.66 8.02 15 7 C15.99 7 16.98 7 18 7 C18 6.34 18 5.68 18 5 C17.01 4.67 16.02 4.34 15 4 C15 3.01 15 2.02 15 1 C10.05 1 5.1 1 0 1 C0 0.67 0 0.34 0 0 Z " fill="#F7CE2F" transform="translate(325,97)"/>
<path d="M0 0 C10.89 0 21.78 0 33 0 C33 0.33 33 0.66 33 1 C22.77 1 12.54 1 2 1 C2.07910003 8.47939301 2.07910003 8.47939301 2.18017578 15.95849609 C2.1851709 16.88742676 2.19016602 17.81635742 2.1953125 18.7734375 C2.20578613 19.72653809 2.21625977 20.67963867 2.22705078 21.66162109 C2 24 2 24 0 26 C-3.14659932 26.4456098 -6.32542493 26.32411997 -9.5 26.3125 C-10.38042969 26.32861328 -11.26085937 26.34472656 -12.16796875 26.36132812 C-13.43060547 26.36229492 -13.43060547 26.36229492 -14.71875 26.36328125 C-15.49154297 26.36626221 -16.26433594 26.36924316 -17.06054688 26.37231445 C-18.02057617 26.1880188 -18.02057617 26.1880188 -19 26 C-19.66 25.01 -20.32 24.02 -21 23 C-14.4 23.33 -7.8 23.66 -1 24 C-0.67 16.08 -0.34 8.16 0 0 Z " fill="#5A8AB6" transform="translate(247,204)"/>
<path d="M0 0 C6.54700379 -0.05091755 13.09395605 -0.08582467 19.64111328 -0.10986328 C21.86606759 -0.11988997 24.09100883 -0.13351472 26.31591797 -0.15087891 C29.52314491 -0.17527392 32.73019685 -0.18651671 35.9375 -0.1953125 C37.41766602 -0.21079636 37.41766602 -0.21079636 38.92773438 -0.22659302 C44.641982 -0.22751096 49.51886546 0.3635869 55 2 C55 2.33 55 2.66 55 3 C54.03613373 2.99666908 54.03613373 2.99666908 53.05279541 2.99327087 C46.36951249 2.9711606 39.68623994 2.95606933 33.00292969 2.94506836 C30.50813373 2.94003722 28.01334072 2.93321166 25.51855469 2.92456055 C21.93423738 2.91244173 18.34995904 2.9067595 14.765625 2.90234375 C13.64883362 2.89718246 12.53204224 2.89202118 11.38140869 2.88670349 C10.34063171 2.88662796 9.29985474 2.88655243 8.22753906 2.88647461 C7.31264709 2.884254 6.39775513 2.88203339 5.45513916 2.87974548 C3.15858431 2.99223242 1.1991267 3.35219415 -1 4 C-0.67 2.68 -0.34 1.36 0 0 Z " fill="#7BA4CA" transform="translate(227,118)"/>
<path d="M0 0 C0.33 0 0.66 0 1 0 C1 9.57 1 19.14 1 29 C1.99 29 2.98 29 4 29 C4 29.66 4 30.32 4 31 C3.34 31 2.68 31 2 31 C2 31.99 2 32.98 2 34 C2.66 34 3.32 34 4 34 C4.38063221 36.3260857 4.71269945 38.66055264 5 41 C4.505 41.495 4.505 41.495 4 42 C0.26341315 41.57699017 -3.37653234 41.01457095 -7 40 C-7 39.34 -7 38.68 -7 38 C-8.32 37.67 -9.64 37.34 -11 37 C-5.555 36.505 -5.555 36.505 0 36 C0 24.12 0 12.24 0 0 Z " fill="#E2EAF0" transform="translate(315,220)"/>
<path d="M0 0 C0.33 0 0.66 0 1 0 C1 12.21 1 24.42 1 37 C9.91 37 18.82 37 28 37 C28 36.01 28 35.02 28 34 C29.875 33.375 29.875 33.375 32 33 C32.66 33.66 33.32 34.32 34 35 C27.07431526 39.82699239 19.24885093 39.15847741 11.125 39.125 C10.16335938 39.12886719 9.20171875 39.13273437 8.2109375 39.13671875 C7.29828125 39.13542969 6.385625 39.13414062 5.4453125 39.1328125 C4.61531738 39.13168457 3.78532227 39.13055664 2.93017578 39.12939453 C1 39 1 39 0 38 C-0.08861992 35.1883662 -0.11522355 32.40141745 -0.09765625 29.58984375 C-0.0962413 28.74780899 -0.09482635 27.90577423 -0.09336853 27.03822327 C-0.08775263 24.33794665 -0.07519748 21.63775172 -0.0625 18.9375 C-0.05748705 17.11132932 -0.05292379 15.28515734 -0.04882812 13.45898438 C-0.03777804 8.97262458 -0.02050279 4.48632616 0 0 Z " fill="#A1BBD3" transform="translate(248,144)"/>
<path d="M0 0 C0.495 0.99 0.495 0.99 1 2 C0.27194656 2.01030746 -0.45610687 2.02061493 -1.20622253 2.03123474 C-8.07717937 2.1293305 -14.94805734 2.23186183 -21.81887341 2.33933926 C-25.35097936 2.39443507 -28.88309378 2.44783313 -32.4152832 2.49731445 C-36.47876668 2.55431367 -40.54210262 2.61876325 -44.60546875 2.68359375 C-45.8702153 2.70030624 -47.13496185 2.71701874 -48.43803406 2.73423767 C-50.20930412 2.7641555 -50.20930412 2.7641555 -52.01635742 2.79467773 C-53.05338303 2.81022202 -54.09040863 2.8257663 -55.15885925 2.84178162 C-57.86656164 2.99256904 -60.36022509 3.39510882 -63 4 C-63 4.99 -63 5.98 -63 7 C-64.32 7 -65.64 7 -67 7 C-66 4 -66 4 -63.3243103 2.33952332 C-59.87798246 0.95083331 -57.50391975 0.60658143 -53.81103516 0.56762695 C-52.61024323 0.54783279 -51.40945129 0.52803864 -50.17227173 0.50764465 C-48.89081268 0.50125473 -47.60935364 0.49486481 -46.2890625 0.48828125 C-44.95240647 0.4714189 -43.61576614 0.45326657 -42.27914429 0.43388367 C-38.7775768 0.38654567 -35.27607301 0.35663223 -31.77429199 0.33044434 C-28.19445215 0.30055642 -24.61483144 0.25405461 -21.03515625 0.20898438 C-14.0235627 0.12313616 -7.01189605 0.05570917 0 0 Z " fill="#C8DDEA" transform="translate(276,100)"/>
<path d="M0 0 C0.33 1.32 0.66 2.64 1 4 C0.34 4 -0.32 4 -1 4 C-0.979375 4.9075 -0.95875 5.815 -0.9375 6.75 C-1.02991108 11.55537591 -1.02991108 11.55537591 -2 14 C-4.06640625 15.484375 -4.06640625 15.484375 -6.5625 16.75 C-7.38878906 17.17796875 -8.21507812 17.6059375 -9.06640625 18.046875 C-9.70449219 18.36140625 -10.34257812 18.6759375 -11 19 C-10.42870947 14.75392172 -8.95658013 11.94615438 -6.625 8.375 C-6.01914063 7.43398437 -5.41328125 6.49296875 -4.7890625 5.5234375 C-3.30835797 3.43493285 -1.88114569 1.7195749 0 0 Z " fill="#2E96D3" transform="translate(260,239)"/>
<path d="M0 0 C0.66 0.33 1.32 0.66 2 1 C1.67 2.65 1.34 4.3 1 6 C-0.65 5.67 -2.3 5.34 -4 5 C-6.06728448 8.80628773 -7.05122439 12.67992148 -8.12109375 16.85546875 C-8.41113281 17.56316406 -8.70117188 18.27085938 -9 19 C-9.99 19.33 -10.98 19.66 -12 20 C-13.66710346 21.49985609 -13.66710346 21.49985609 -15 23 C-12.68273819 13.86336773 -8.00151219 5.33434146 0 0 Z " fill="#3B9BD0" transform="translate(197,85)"/>
<path d="M0 0 C0.9796875 0.0515625 1.959375 0.103125 2.96875 0.15625 C4.49242187 0.25292969 4.49242187 0.25292969 6.046875 0.3515625 C7.59375 0.43664062 7.59375 0.43664062 9.171875 0.5234375 C11.71426705 0.6646815 14.25563738 0.81606996 16.796875 0.9765625 C16.796875 1.9665625 16.796875 2.9565625 16.796875 3.9765625 C15.77533325 3.95299683 15.77533325 3.95299683 14.7331543 3.92895508 C11.65031219 3.86663028 8.56760256 3.82757992 5.484375 3.7890625 C3.8765918 3.75135742 3.8765918 3.75135742 2.23632812 3.71289062 C1.20830078 3.70322266 0.18027344 3.69355469 -0.87890625 3.68359375 C-1.82677002 3.6678833 -2.77463379 3.65217285 -3.7512207 3.63598633 C-6.60083908 4.03180607 -7.45288605 4.75480969 -9.203125 6.9765625 C-9.203125 5.3265625 -9.203125 3.6765625 -9.203125 1.9765625 C-5.96373384 0.0395388 -3.7428729 -0.21760889 0 0 Z " fill="#3D7CB5" transform="translate(209.203125,202.0234375)"/>
<path d="M0 0 C0.33 0.66 0.66 1.32 1 2 C2.65 1.67 4.3 1.34 6 1 C5.67 1.99 5.34 2.98 5 4 C5.928125 3.505 6.85625 3.01 7.8125 2.5 C12.73968438 0.340555 17.72281389 0.74234354 23 1 C23 1.33 23 1.66 23 2 C22.41992188 2.04898437 21.83984375 2.09796875 21.2421875 2.1484375 C17.5761944 2.49930813 14.32211258 2.89262914 10.8125 4.0625 C7.06541614 5.31152795 3.60904334 5.80452167 0 4 C-0.33 4.99 -0.66 5.98 -1 7 C-2.32 7 -3.64 7 -5 7 C-5.33 6.01 -5.66 5.02 -6 4 C-4.35 3.67 -2.7 3.34 -1 3 C-1.33 2.34 -1.66 1.68 -2 1 C-1.34 0.67 -0.68 0.34 0 0 Z " fill="#3178B6" transform="translate(281,256)"/>
<path d="M0 0 C4.95696581 1.23924145 7.11658466 2.78577758 10 7 C9.34 7.66 8.68 8.32 8 9 C7.67 8.67 7.34 8.34 7 8 C6.67 8.66 6.34 9.32 6 10 C3.08482708 8.92598892 1.22189824 8.22189824 -1 6 C-0.625 2.875 -0.625 2.875 0 0 Z " fill="#2C77B9" transform="translate(291,126)"/>
<path d="M0 0 C0.66 0 1.32 0 2 0 C4.581299 5.80792276 4.40144948 11.76352901 4 18 C3.67 18.66 3.34 19.32 3 20 C2.34 20 1.68 20 1 20 C0.87625 20.5775 0.7525 21.155 0.625 21.75 C-0.00648824 24.02335767 -0.88858191 25.9253529 -2 28 C-2.99 28 -3.98 28 -5 28 C-5 27.01 -5 26.02 -5 25 C-4.01 24.34 -3.02 23.68 -2 23 C1.58667665 15.56096694 2.14057637 8.02716137 0 0 Z " fill="#3877AF" transform="translate(287,152)"/>
<path d="M0 0 C0.33 0 0.66 0 1 0 C1 1.98 1 3.96 1 6 C1.66 6 2.32 6 3 6 C3.33 6.99 3.66 7.98 4 9 C3.34 9.66 2.68 10.32 2 11 C2.4100567 13.07935207 2.4100567 13.07935207 4 15 C6.69658452 15.68790422 9.2017019 15.81946464 12 16 C12 16.33 12 16.66 12 17 C10.20866022 17.05391993 8.41686101 17.09275571 6.625 17.125 C5.62726563 17.14820313 4.62953125 17.17140625 3.6015625 17.1953125 C1 17 1 17 -1 15 C-0.98252112 12.40730017 -0.86231408 9.9474846 -0.625 7.375 C-0.56828125 6.66859375 -0.5115625 5.9621875 -0.453125 5.234375 C-0.31159079 3.48878639 -0.15702613 1.74426327 0 0 Z " fill="#2D76B8" transform="translate(180,240)"/>
<path d="M0 0 C0.33 0 0.66 0 1 0 C1.33 5.28 1.66 10.56 2 16 C3.32 16 4.64 16 6 16 C5.67 17.98 5.34 19.96 5 22 C3.35 21.67 1.7 21.34 0 21 C0 14.07 0 7.14 0 0 Z " fill="#196EAD" transform="translate(226,122)"/>
<path d="M0 0 C0.66 0.33 1.32 0.66 2 1 C0.26307088 6.21078737 -4.49191861 9.9946124 -9 13 C-11.25 12.875 -11.25 12.875 -13 12 C-13.33 11.34 -13.66 10.68 -14 10 C-12.02 10 -10.04 10 -8 10 C-8 9.34 -8 8.68 -8 8 C-7.01 8 -6.02 8 -5 8 C-4.67 6.68 -4.34 5.36 -4 4 C-3.34 4 -2.68 4 -2 4 C-1.34 2.68 -0.68 1.36 0 0 Z " fill="#397AB1" transform="translate(258,274)"/>
<path d="M0 0 C2.97 0.495 2.97 0.495 6 1 C3.87089834 3.33471584 1.92482665 4.68146181 -0.9375 6 C-3.90732447 7.41679699 -6.38725285 8.9901945 -9 11 C-9.66 11 -10.32 11 -11 11 C-11 10.01 -11 9.02 -11 8 C-10.01 8 -9.02 8 -8 8 C-7.79375 7.360625 -7.5875 6.72125 -7.375 6.0625 C-6 4 -6 4 -2.875 3.25 C-1.92625 3.1675 -0.9775 3.085 0 3 C0 2.01 0 1.02 0 0 Z " fill="#E3ECEF" transform="translate(274,225)"/>
<path d="M0 0 C0.33 1.65 0.66 3.3 1 5 C2.32 4.67 3.64 4.34 5 4 C4.67 5.32 4.34 6.64 4 8 C3.34 8 2.68 8 2 8 C2 7.34 2 6.68 2 6 C1.0925 5.7525 0.185 5.505 -0.75 5.25 C-4.10351489 3.96018658 -5.67708236 2.68028958 -8 0 C-4.71303767 -0.79953138 -3.28976808 -1.09658936 0 0 Z " fill="#E2EBF1" transform="translate(239,246)"/>
<path d="M0 0 C1.32 0.33 2.64 0.66 4 1 C4 2.32 4 3.64 4 5 C4.99 5.33 5.98 5.66 7 6 C6.67 6.99 6.34 7.98 6 9 C2.2047869 7.50902342 0.38957269 5.24299151 -2 2 C-1.34 2 -0.68 2 0 2 C0 1.34 0 0.68 0 0 Z " fill="#389ED5" transform="translate(192,147)"/>
<path d="M0 0 C0 0.66 0 1.32 0 2 C-1.98 2.33 -3.96 2.66 -6 3 C-6 3.66 -6 4.32 -6 5 C-6.66 5 -7.32 5 -8 5 C-7.67 5.99 -7.34 6.98 -7 8 C-9.97 8 -12.94 8 -16 8 C-13.26352641 5.26352641 -11.39124643 3.99298372 -8 2.3125 C-6.700625 1.65701172 -6.700625 1.65701172 -5.375 0.98828125 C-3 0 -3 0 0 0 Z " fill="#399DD2" transform="translate(287,224)"/>
<path d="M0 0 C0.99 0.33 1.98 0.66 3 1 C3 2.98 3 4.96 3 7 C0.59454362 8.20272819 -0.94996953 8.10071472 -3.625 8.0625 C-4.85089844 8.04896484 -4.85089844 8.04896484 -6.1015625 8.03515625 C-7.04128906 8.01775391 -7.04128906 8.01775391 -8 8 C-8 7.67 -8 7.34 -8 7 C-7.236875 6.896875 -6.47375 6.79375 -5.6875 6.6875 C-2.80192188 5.94932885 -1.73820183 5.37859197 0 3 C0 2.01 0 1.02 0 0 Z " fill="#3172AC" transform="translate(312,249)"/>
<path d="M0 0 C5.75 -0.125 5.75 -0.125 8 1 C8 1.66 8 2.32 8 3 C8.99 3 9.98 3 11 3 C11 3.66 11 4.32 11 5 C13.475 5.99 13.475 5.99 16 7 C15.67 7.66 15.34 8.32 15 9 C13.24784894 8.06652642 11.49836437 7.1280468 9.75 6.1875 C8.28820312 5.40439453 8.28820312 5.40439453 6.796875 4.60546875 C4.36644588 3.21034812 2.19212301 1.73804039 0 0 Z " fill="#407DB3" transform="translate(216,263)"/>
<path d="M0 0 C-0.639375 0.28875 -1.27875 0.5775 -1.9375 0.875 C-4.15206079 1.82823451 -4.15206079 1.82823451 -5 4 C-7.06640625 4.4140625 -7.06640625 4.4140625 -9.5625 4.625 C-10.38878906 4.69976562 -11.21507812 4.77453125 -12.06640625 4.8515625 C-13.02353516 4.92503906 -13.02353516 4.92503906 -14 5 C-12.67753846 2.35507692 -11.35464102 2.02166213 -8.6875 0.8125 C-7.90761719 0.44769531 -7.12773437 0.08289063 -6.32421875 -0.29296875 C-3.7433438 -1.07807525 -2.50336038 -0.89937661 0 0 Z " fill="#5AA8CF" transform="translate(213,80)"/>
<path d="M0 0 C2.97 0.99 5.94 1.98 9 3 C8.01 3.33 7.02 3.66 6 4 C5.67 4.99 5.34 5.98 5 7 C4.01 6.67 3.02 6.34 2 6 C0.8125 2.9375 0.8125 2.9375 0 0 Z " fill="#4383BF" transform="translate(282,121)"/>
<path d="M0 0 C0.33 1.32 0.66 2.64 1 4 C0.34 4 -0.32 4 -1 4 C-1 4.99 -1 5.98 -1 7 C-1.99 7.33 -2.98 7.66 -4 8 C-5.20882096 10.00016466 -5.20882096 10.00016466 -6 12 C-6.66 11.34 -7.32 10.68 -8 10 C-5.36 6.7 -2.72 3.4 0 0 Z " fill="#409BC7" transform="translate(260,239)"/>
<path d="M0 0 C6.93 0 13.86 0 21 0 C21 0.33 21 0.66 21 1 C19.74703125 1.06058594 18.4940625 1.12117188 17.203125 1.18359375 C15.55207276 1.26802256 13.90103165 1.35266939 12.25 1.4375 C11.425 1.47681641 10.6 1.51613281 9.75 1.55664062 C8.95078125 1.59853516 8.1515625 1.64042969 7.328125 1.68359375 C6.5949707 1.72025146 5.86181641 1.75690918 5.10644531 1.79467773 C2.98822395 2.00114785 1.0480544 2.43132086 -1 3 C-0.67 2.01 -0.34 1.02 0 0 Z " fill="#3780B6" transform="translate(227,119)"/>
<path d="M0 0 C0.33 0 0.66 0 1 0 C0.67 2.31 0.34 4.62 0 7 C-3.75 8.125 -3.75 8.125 -6 7 C-5.02433888 5.83040013 -4.044375 4.66438823 -3.0625 3.5 C-2.51722656 2.8503125 -1.97195313 2.200625 -1.41015625 1.53125 C-0.71212891 0.77328125 -0.71212891 0.77328125 0 0 Z " fill="#E4EAEE" transform="translate(304,187)"/>
<path d="M0 0 C2 2 2 2 2.5 5.0625 C2.665 6.031875 2.83 7.00125 3 8 C3.66 8.33 4.32 8.66 5 9 C2.03 8.67 -0.94 8.34 -4 8 C-2.68 7.67 -1.36 7.34 0 7 C0 4.69 0 2.38 0 0 Z " fill="#DEE8ED" transform="translate(205,229)"/>
<path d="M0 0 C0.99 0.33 1.98 0.66 3 1 C2.38125 1.9075 1.7625 2.815 1.125 3.75 C-0.44389611 6.14948817 -1.80443821 8.40961612 -3 11 C-3.125 4.375 -3.125 4.375 -2 1 C-1.34 0.67 -0.68 0.34 0 0 Z " fill="#D8E3EA" transform="translate(183,187)"/>
<path d="M0 0 C1.32 0.33 2.64 0.66 4 1 C4.33 3.31 4.66 5.62 5 8 C4.01 8.495 4.01 8.495 3 9 C0.70620251 5.55930376 0 4.27709699 0 0 Z " fill="#3477B4" transform="translate(306,146)"/>
<path d="M0 0 C0.33 0 0.66 0 1 0 C1 4.62 1 9.24 1 14 C-0.32 14 -1.64 14 -3 14 C-2.67 12.35 -2.34 10.7 -2 9 C-1.67 9 -1.34 9 -1 9 C-0.67 6.03 -0.34 3.06 0 0 Z " fill="#C7DFEC" transform="translate(180,116)"/>
<path d="M0 0 C2.64 0 5.28 0 8 0 C8.33 1.65 8.66 3.3 9 5 C8.67 4.01 8.34 3.02 8 2 C7.01 3.32 6.02 4.64 5 6 C4.67 4.35 4.34 2.7 4 1 C2.68 0.67 1.36 0.34 0 0 Z " fill="#3596CD" transform="translate(306,218)"/>
<path d="M0 0 C0 1.65 0 3.3 0 5 C-1.65 5.66 -3.3 6.32 -5 7 C-5.33 6.01 -5.66 5.02 -6 4 C-2.25 0 -2.25 0 0 0 Z " fill="#2E7ABC" transform="translate(191,185)"/>
<path d="M0 0 C0.12375 0.639375 0.2475 1.27875 0.375 1.9375 C0.58125 2.618125 0.7875 3.29875 1 4 C1.66 4.33 2.32 4.66 3 5 C2.67 6.98 2.34 8.96 2 11 C1.34 11 0.68 11 0 11 C-1.49297212 8.01405576 -1.11755228 5.29146376 -1 2 C-0.67 1.34 -0.34 0.68 0 0 Z " fill="#F2C623" transform="translate(292,99)"/>
<path d="M0 0 C0.66 0.33 1.32 0.66 2 1 C1.67 2.65 1.34 4.3 1 6 C-0.65 5.67 -2.3 5.34 -4 5 C-4.66 6.32 -5.32 7.64 -6 9 C-6.66 8.67 -7.32 8.34 -8 8 C-5.33333333 5.33333333 -2.66666667 2.66666667 0 0 Z " fill="#48A2CE" transform="translate(197,85)"/>
<path d="M0 0 C3.12290635 0.48578543 5.99580359 0.9986012 9 2 C8.67 2.66 8.34 3.32 8 4 C5.36 3.67 2.72 3.34 0 3 C0 2.01 0 1.02 0 0 Z " fill="#3277B0" transform="translate(218,242)"/>
<path d="M0 0 C2.97 0 5.94 0 9 0 C6.3144406 2.6855594 3.62378672 3.06049974 0 4 C0 2.68 0 1.36 0 0 Z " fill="#EBEFF0" transform="translate(295,258)"/>
<path d="M0 0 C2.97 0.495 2.97 0.495 6 1 C6.33 2.32 6.66 3.64 7 5 C6.34 5 5.68 5 5 5 C4.67 5.99 4.34 6.98 4 8 C2 5 2 5 2 2 C1.34 1.34 0.68 0.68 0 0 Z " fill="#F7F4E7" transform="translate(320,74)"/>
<path d="M0 0 C0.99 0.495 0.99 0.495 2 1 C2.4140625 3.06640625 2.4140625 3.06640625 2.625 5.5625 C2.69976562 6.38878906 2.77453125 7.21507812 2.8515625 8.06640625 C2.92503906 9.02353516 2.92503906 9.02353516 3 10 C2.01 9.67 1.02 9.34 0 9 C0 6.03 0 3.06 0 0 Z " fill="#1775C6" transform="translate(227,218)"/>
<path d="M0 0 C2.66666667 2.66666667 5.33333333 5.33333333 8 8 C6.35 8.33 4.7 8.66 3 9 C3 8.01 3 7.02 3 6 C2.34 5.67 1.68 5.34 1 5 C1 4.34 1 3.68 1 3 C0.34 2.67 -0.32 2.34 -1 2 C-0.67 1.34 -0.34 0.68 0 0 Z " fill="#4CA1CD" transform="translate(205,131)"/>
<path d="M0 0 C-2.35968744 2.09749995 -3.54616994 2.96905704 -6.75 3.1875 C-7.86375 3.0946875 -7.86375 3.0946875 -9 3 C-9 2.34 -9 1.68 -9 1 C-5.57367167 -0.61798838 -3.61944899 -1.34053666 0 0 Z " fill="#E9EEF3" transform="translate(291,202)"/>
<path d="M0 0 C0.6875 1.6875 0.6875 1.6875 1 4 C-0.25 6.75 -0.25 6.75 -2 9 C-2.99 9 -3.98 9 -5 9 C-5 8.01 -5 7.02 -5 6 C-4.01 5.34 -3.02 4.68 -2 4 C-0.80767387 1.94996045 -0.80767387 1.94996045 0 0 Z " fill="#417DB2" transform="translate(287,171)"/>
<path d="M0 0 C2.125 0.9375 2.125 0.9375 4 2 C-0.10457614 4.98514628 -2.97745369 5.2954439 -8 5 C-8 4.67 -8 4.34 -8 4 C-6.02 4 -4.04 4 -2 4 C-2 3.01 -2 2.02 -2 1 C-1.34 0.67 -0.68 0.34 0 0 Z " fill="#D0DDE6" transform="translate(278,177)"/>
<path d="M0 0 C0.99 0.99 1.98 1.98 3 3 C1.02 3.99 -0.96 4.98 -3 6 C-3 4.68 -3 3.36 -3 2 C-2.01 1.34 -1.02 0.68 0 0 Z " fill="#3273AF" transform="translate(269,265)"/>
<path d="M0 0 C0.66 0.33 1.32 0.66 2 1 C1.67 2.65 1.34 4.3 1 6 C0.34 5.67 -0.32 5.34 -1 5 C-1.33 5 -1.66 5 -2 5 C-2.99 4.67 -3.98 4.34 -5 4 C-3.35 2.68 -1.7 1.36 0 0 Z " fill="#3B9BCE" transform="translate(266,234)"/>
<path d="M0 0 C2.97 0.495 2.97 0.495 6 1 C3.60490662 3.89932357 1.68754757 4.50168276 -2 5 C-2 4.34 -2 3.68 -2 3 C-1.34 3 -0.68 3 0 3 C0 2.01 0 1.02 0 0 Z " fill="#D7E7EF" transform="translate(274,225)"/>
<path d="M0 0 C1.9375 0.25 1.9375 0.25 4 1 C4.7425 1.185625 5.485 1.37125 6.25 1.5625 C6.8275 1.706875 7.405 1.85125 8 2 C0.57142857 4.42857143 0.57142857 4.42857143 -3 3 C-1.75 1.4375 -1.75 1.4375 0 0 Z " fill="#DBE7EE" transform="translate(283,221)"/>
<path d="M0 0 C0.99 0.99 1.98 1.98 3 3 C2.34 3 1.68 3 1 3 C1 3.66 1 4.32 1 5 C-0.98 5.66 -2.96 6.32 -5 7 C-5 6.01 -5 5.02 -5 4 C-3.35 4 -1.7 4 0 4 C0 2.68 0 1.36 0 0 Z " fill="#4E86B9" transform="translate(293,194)"/>
<path d="M0 0 C0.66 0 1.32 0 2 0 C0.68775452 3.93673644 -0.91910327 6.22719294 -4 9 C-4 7.68 -4 6.36 -4 5 C-3.34 5 -2.68 5 -2 5 C-2 4.01 -2 3.02 -2 2 C-1.34 2 -0.68 2 0 2 C0 1.34 0 0.68 0 0 Z " fill="#3E79AE" transform="translate(305,182)"/>
<path d="M0 0 C1.98 0.99 1.98 0.99 4 2 C3.67 2.66 3.34 3.32 3 4 C2.01 2.68 1.02 1.36 0 0 Z M-1 2 C-0.01 2.66 0.98 3.32 2 4 C1.01 4.99 0.02 5.98 -1 7 C-1.66 5.68 -2.32 4.36 -3 3 C-2.34 2.67 -1.68 2.34 -1 2 Z " fill="#2A74B5" transform="translate(244,277)"/>
<path d="M0 0 C2 2 2 2 2 5 C-3.75 3.25 -3.75 3.25 -6 1 C-3.03 1.495 -3.03 1.495 0 2 C0 1.34 0 0.68 0 0 Z " fill="#5AA9D3" transform="translate(204,156)"/>
<path d="M0 0 C-0.33 1.65 -0.66 3.3 -1 5 C-2.65 4.67 -4.3 4.34 -6 4 C-2.25 0 -2.25 0 0 0 Z " fill="#E9EEF1" transform="translate(269,270)"/>
<path d="M0 0 C1.65 0.33 3.3 0.66 5 1 C1.71536341 3.18975773 -1.20696275 3.99806563 -5 5 C-5 4.34 -5 3.68 -5 3 C-4.360625 2.87625 -3.72125 2.7525 -3.0625 2.625 C-2.0415625 2.315625 -2.0415625 2.315625 -1 2 C-0.67 1.34 -0.34 0.68 0 0 Z " fill="#4179AF" transform="translate(281,260)"/>
<path d="M0 0 C0.66 0 1.32 0 2 0 C1.34 1.98 0.68 3.96 0 6 C-0.99 6 -1.98 6 -3 6 C-3 5.01 -3 4.02 -3 3 C-2.34 3.33 -1.68 3.66 -1 4 C-0.67 2.68 -0.34 1.36 0 0 Z " fill="#E6EDF1" transform="translate(286,169)"/>
<path d="M0 0 C0.33 0 0.66 0 1 0 C1.66 2.97 2.32 5.94 3 9 C2.34 9 1.68 9 1 9 C0.67 7.35 0.34 5.7 0 4 C-0.66 4 -1.32 4 -2 4 C-1.34 2.68 -0.68 1.36 0 0 Z " fill="#F5EDD5" transform="translate(309,121)"/>
<path d="M0 0 C2 3 2 3 1.7578125 5.04296875 C1.171875 7.02864583 0.5859375 9.01432292 0 11 C-0.33 11 -0.66 11 -1 11 C-1.14285714 3.57142857 -1.14285714 3.57142857 0 0 Z " fill="#2792C8" transform="translate(182,121)"/>
<path d="M0 0 C1.32 0.33 2.64 0.66 4 1 C4 2.32 4 3.64 4 5 C2 6.75 2 6.75 0 8 C0 6.35 0 4.7 0 3 C0.66 2.67 1.32 2.34 2 2 C1.34 1.34 0.68 0.68 0 0 Z " fill="#2B99CE" transform="translate(208,99)"/>
</svg>
